<?xml version="1.0" standalone="no"?>
<!DOCTYPE svg PUBLIC "-//W3C//DTD SVG 20010904//EN"
 "http://www.w3.org/TR/2001/REC-SVG-20010904/DTD/svg10.dtd">
<svg version="1.0" xmlns="http://www.w3.org/2000/svg"
 width="512.000000pt" height="512.000000pt" viewBox="0 0 512.000000 512.000000"
 preserveAspectRatio="xMidYMid meet">
<metadata>
Created by potrace 1.11, written by Peter Selinger 2001-2013
</metadata>
<g transform="translate(0.000000,512.000000) scale(0.100000,-0.100000)"
fill="#000000" stroke="none">
<path d="M2975 4833 c-40 -21 -77 -56 -136 -130 -44 -54 -55 -62 -102 -73
-156 -37 -304 -182 -402 -395 -23 -50 -50 -91 -71 -108 -39 -33 -47 -77 -14
-77 12 0 20 -7 21 -17 0 -10 2 -47 4 -83 3 -36 4 -100 4 -142 -1 -107 57 -283
112 -343 35 -38 39 -50 54 -141 16 -98 34 -150 66 -189 20 -24 35 -80 19 -70
-6 4 -17 -9 -26 -30 -14 -34 -14 -39 10 -91 24 -51 85 -121 136 -154 12 -8 28
-20 34 -26 7 -6 22 -15 34 -18 12 -4 22 -12 22 -17 0 -5 8 -9 19 -9 10 0 24
-7 31 -15 7 -9 15 -13 18 -11 8 8 42 -14 42 -27 0 -7 -4 -19 -10 -27 -7 -11
-13 -12 -32 -3 -13 7 -32 13 -43 15 -13 3 -19 10 -17 23 2 12 0 16 -5 9 -4 -6
-18 -16 -31 -23 -12 -7 -20 -17 -16 -23 4 -6 -1 -8 -14 -4 -22 7 -39 -8 -22
-19 12 -8 13 -25 1 -25 -15 0 -129 119 -137 142 -3 13 -24 53 -46 90 -22 38
-38 75 -34 83 4 12 -2 11 -34 -5 -21 -11 -42 -24 -45 -30 -8 -12 -127 -70
-206 -99 -59 -22 -71 -32 -120 -95 -16 -22 -43 -48 -59 -58 -38 -23 -38 -32 3
-49 44 -18 135 -105 160 -154 27 -54 72 -193 90 -283 24 -116 7 -422 -24 -422
-5 0 -9 33 -10 73 0 59 -2 68 -11 47 -5 -14 -10 -68 -10 -120 0 -62 -5 -104
-14 -122 -8 -15 -14 -34 -14 -42 0 -8 -10 -32 -22 -53 -31 -51 -34 -25 -9 73
10 44 15 84 11 89 -5 6 -12 35 -16 65 -12 100 -38 120 -47 38 -4 -29 -12 -82
-18 -118 -6 -36 -12 -80 -14 -99 -4 -40 -25 -68 -25 -32 0 29 -15 57 -35 65
-13 4 -14 -2 -10 -37 3 -23 11 -58 17 -78 7 -25 7 -55 1 -93 -11 -61 -7 -75
13 -48 7 9 14 12 14 6 0 -7 -20 -29 -43 -51 -33 -28 -46 -49 -51 -78 -11 -62
-75 -246 -97 -276 -16 -23 -17 -34 -9 -85 5 -32 7 -66 5 -76 -8 -24 22 -214
40 -247 8 -17 15 -41 15 -55 0 -14 13 -59 30 -101 34 -86 40 -182 16 -292
l-13 -63 1163 0 1164 0 62 24 c128 49 143 57 126 67 -15 8 -14 14 4 58 16 38
25 47 40 43 14 -3 17 0 12 14 -9 25 -34 53 -57 66 -17 9 -18 6 -12 -44 4 -35
1 -66 -8 -93 -12 -36 -18 -40 -50 -43 -38 -3 -46 5 -25 26 16 16 6 23 -33 25
-30 2 -35 7 -51 52 -19 53 -14 65 29 65 12 0 28 6 35 13 7 7 21 16 31 20 9 3
23 18 29 32 14 32 1 45 -39 37 -17 -3 -24 -1 -19 6 3 6 2 13 -3 17 -5 3 -8 15
-5 28 3 12 7 38 9 57 2 19 8 64 14 100 11 66 14 98 27 230 4 41 8 84 9 95 8
64 24 343 21 360 -3 22 -20 23 -96 7 -58 -13 -64 -7 -14 13 91 37 114 49 114
62 0 15 -11 17 -26 5 -10 -10 -125 -57 -161 -67 -16 -4 -23 -2 -23 8 0 9 20
18 54 26 51 11 83 31 70 43 -3 3 7 8 21 12 29 7 32 18 10 36 -8 7 -15 8 -15 3
0 -5 -25 -9 -55 -9 -51 1 -55 3 -50 21 3 11 8 38 11 60 4 22 10 45 14 50 14
20 20 77 9 96 -8 15 -7 24 3 36 11 14 9 15 -22 11 l-34 -5 31 26 c25 21 30 32
28 61 -1 19 -3 48 -4 64 -1 24 -3 26 -16 16 -8 -6 -19 -9 -24 -6 -16 10 -1 36
21 36 12 0 17 5 14 13 -3 6 -9 20 -12 30 -10 26 -22 21 -38 -18 -19 -43 -30
-46 -21 -4 5 22 4 29 -4 25 -6 -4 -11 -2 -11 4 0 6 -4 8 -10 5 -6 -4 -10 8
-10 28 0 19 -9 45 -19 59 -29 36 -37 133 -17 183 13 32 13 36 1 21 -18 -23
-19 -20 -35 89 -14 101 -84 285 -123 325 -19 19 -53 37 -96 50 -36 10 -89 34
-116 51 -28 18 -70 40 -93 50 -24 11 -63 35 -85 55 l-42 35 -7 -78 c-5 -43
-11 -89 -14 -102 -5 -22 -7 -23 -20 -9 -14 13 -14 21 -1 64 34 118 18 194 -54
259 -45 40 -56 43 -61 15 -2 -12 -7 -19 -13 -18 -11 3 -8 50 4 58 5 3 11 15
15 28 4 12 12 22 17 22 5 0 9 7 9 15 0 8 4 15 10 15 24 0 84 160 96 257 4 32
13 68 21 80 8 12 13 27 12 35 -5 36 1 49 20 43 15 -5 22 2 34 37 70 193 79
246 52 285 -14 20 -13 25 4 55 16 26 20 53 21 133 1 109 -4 144 -50 343 -16
73 -30 148 -30 167 0 73 -13 66 -36 -22 -13 -48 -23 -101 -24 -116 0 -28 -5
-25 -95 61 -134 127 -277 192 -423 192 l-56 0 30 31 c58 61 111 74 152 37 l25
-23 -24 44 c-43 78 -84 96 -144 64z m121 -193 c167 -42 280 -122 416 -294 69
-87 91 -126 72 -126 -4 0 -39 18 -78 39 -93 52 -273 119 -364 137 -98 19 -336
18 -427 -1 -86 -18 -146 -47 -269 -130 -92 -61 -118 -66 -77 -14 10 13 21 34
25 46 10 31 88 135 137 183 47 46 141 104 182 114 26 6 27 5 17 -13 -5 -11
-18 -24 -28 -30 -36 -20 0 -22 99 -5 117 19 299 15 404 -10 33 -8 61 -13 63
-11 2 1 -25 12 -60 24 -86 28 -209 44 -291 38 l-68 -6 21 27 c43 55 101 64
226 32z m404 -780 c0 -5 -4 -10 -10 -10 -5 0 -10 5 -10 10 0 6 5 10 10 10 6 0
10 -4 10 -10z m0 -22 c9 -61 10 -78 3 -78 -4 0 -6 -22 -5 -50 3 -32 0 -50 -7
-50 -6 0 -11 8 -11 18 0 9 -5 24 -11 32 -8 11 -9 7 -6 -18 3 -26 0 -32 -11
-27 -10 4 -13 0 -9 -15 3 -12 1 -18 -5 -14 -6 4 -14 0 -19 -7 -14 -22 -10 -49
6 -49 8 0 15 -7 15 -16 0 -9 5 -12 13 -8 9 5 9 4 0 -6 -10 -11 -17 -10 -37 4
-29 18 -72 21 -82 5 -11 -18 -26 6 -27 42 0 39 52 124 83 134 11 4 20 12 20
19 0 9 10 12 31 10 31 -4 31 -4 15 21 -21 32 -22 52 -1 35 12 -10 16 -9 21 4
5 13 23 23 24 14z m-390 -358 c0 -5 -7 -10 -16 -10 -8 0 -12 5 -9 10 3 6 10
10 16 10 5 0 9 -4 9 -10z m344 -6 c3 -8 2 -12 -4 -9 -6 3 -10 10 -10 16 0 14
7 11 14 -7z m-570 -208 c35 4 64 -16 51 -36 -8 -13 -45 -13 -45 1 0 5 -10 9
-22 7 -18 -2 -23 2 -25 22 -1 14 0 20 3 13 3 -6 19 -10 38 -7z m169 -1 c4 -8
2 -17 -3 -20 -6 -4 -10 3 -10 14 0 25 6 27 13 6z m-38 -1 c14 -6 14 -8 -1 -25
-18 -20 -54 -26 -54 -10 0 9 27 41 35 41 2 0 11 -3 20 -6z m-455 -261 c0 -5
-5 -15 -10 -23 -8 -12 -10 -11 -10 8 0 12 5 22 10 22 6 0 10 -3 10 -7z m780
-49 c0 -8 -6 -11 -15 -8 -8 4 -15 9 -15 13 0 4 7 8 15 8 8 0 15 -6 15 -13z
m59 -349 c-18 -25 -34 -45 -36 -45 -11 0 1 24 27 53 17 19 30 41 31 48 0 10 2
11 6 2 2 -7 -10 -33 -28 -58z m-395 26 c3 -4 -6 -6 -19 -3 -14 2 -25 6 -25 8
0 8 39 4 44 -5z m46 -42 c15 -28 5 -23 -15 7 -9 15 -12 23 -6 20 6 -4 16 -16
21 -27z m240 -75 c0 -11 -5 -14 -16 -10 -9 3 -23 6 -32 7 -14 0 -13 2 3 9 31
13 45 11 45 -6z m-360 -29 c-7 -8 -17 -15 -23 -15 -6 0 -2 7 9 15 25 19 30 19
14 0z m302 -54 c19 -12 24 -11 41 10 16 19 40 26 72 20 3 -1 1 -10 -5 -21 -8
-16 -6 -21 11 -31 19 -10 21 -17 15 -56 -3 -25 -17 -77 -31 -116 -14 -39 -29
-95 -34 -126 -8 -55 -58 -248 -68 -265 -3 -4 -27 31 -54 80 -54 100 -55 117
-17 269 30 118 31 127 19 201 -8 51 -7 71 1 82 10 12 14 10 20 -10 5 -13 18
-29 30 -37z m-133 40 c21 -12 46 -74 36 -91 -10 -16 -30 -12 -50 10 -9 10 -39
26 -66 35 -34 12 -47 21 -46 34 1 14 11 18 54 20 29 1 61 -3 72 -8z m-139 -63
c0 -7 23 -23 50 -35 58 -25 73 -53 72 -128 0 -27 4 -55 9 -61 9 -12 1 -74 -10
-74 -3 1 -45 59 -93 130 -81 121 -86 137 -30 102 30 -20 28 -9 -8 30 -16 18
-30 36 -30 40 0 13 40 9 40 -4z m1157 -765 c-3 -10 -5 -2 -5 17 0 19 2 27 5
18 2 -10 2 -26 0 -35z m3 -568 c0 -8 -4 -15 -10 -15 -5 0 -7 7 -4 15 4 8 8 15
10 15 2 0 4 -7 4 -15z m60 -155 c0 -5 -4 -10 -10 -10 -5 0 -10 5 -10 10 0 6 5
10 10 10 6 0 10 -4 10 -10z m-85 -600 c22 -10 49 -25 60 -34 19 -15 19 -15 1
-16 -22 0 -135 48 -156 67 -13 11 -10 12 20 7 19 -4 53 -14 75 -24z m350 -90
c10 -11 16 -20 13 -20 -3 0 -13 9 -23 20 -10 11 -16 20 -13 20 3 0 13 -9 23
-20z"/>
<path d="M3170 2175 c-5 -14 -10 -30 -10 -34 0 -14 23 -29 36 -24 19 7 18 57
-1 73 -12 10 -16 8 -25 -15z"/>
<path d="M2434 4706 c-3 -8 -4 -27 -2 -43 3 -23 5 -20 9 15 5 43 2 53 -7 28z"/>
<path d="M2348 4496 c-8 -19 -7 -42 5 -98 l15 -73 1 98 c0 53 -1 97 -4 97 -3
0 -10 -11 -17 -24z"/>
<path d="M2010 2503 c0 -3 7 -15 17 -25 15 -17 15 -18 -3 -18 -16 0 -14 -4 11
-25 31 -25 51 -33 40 -15 -3 6 1 7 9 4 24 -9 19 8 -15 49 -27 33 -59 49 -59
30z"/>
<path d="M1960 2450 c0 -9 39 -25 46 -18 2 3 -7 10 -21 16 -14 6 -25 7 -25 2z"/>
<path d="M1860 2440 c0 -5 9 -14 20 -20 22 -12 27 -1 8 18 -14 14 -28 16 -28
2z"/>
<path d="M1830 2223 c0 -5 14 -21 31 -38 17 -16 49 -58 71 -92 23 -35 42 -63
45 -63 6 0 -38 83 -68 126 -26 39 -79 84 -79 67z"/>
<path d="M4100 2151 c-13 -26 0 -34 45 -25 56 10 53 32 -2 25 -7 -1 -13 3 -13
9 0 17 -19 11 -30 -9z"/>
<path d="M4106 2037 c3 -10 9 -15 12 -12 3 3 0 11 -7 18 -10 9 -11 8 -5 -6z"/>
<path d="M4150 1965 c0 -8 4 -15 10 -15 5 0 7 7 4 15 -4 8 -8 15 -10 15 -2 0
-4 -7 -4 -15z"/>
<path d="M1261 1667 c-50 -26 -159 -116 -160 -133 -1 -6 -10 -22 -20 -36 -18
-22 -19 -32 -10 -94 5 -38 14 -85 19 -104 6 -19 10 -43 10 -53 0 -17 -1 -17
-25 0 -14 11 -25 28 -25 43 0 14 -4 32 -10 40 -5 9 -5 19 2 28 19 22 -6 38
-38 23 -15 -6 -29 -9 -32 -7 -3 3 -22 -10 -42 -28 -35 -31 -42 -34 -96 -31
-79 3 -77 2 -71 24 2 10 1 25 -4 34 -16 28 20 29 46 1 l24 -26 6 29 c3 15 11
36 16 46 7 13 5 19 -6 23 -17 7 -21 34 -5 34 21 0 9 28 -15 34 -37 9 -108 -43
-145 -107 -30 -51 -32 -70 -15 -124 7 -21 6 -21 -33 -8 -51 18 -208 15 -239
-5 -12 -8 -31 -35 -44 -61 -24 -53 -28 -56 -98 -65 -98 -13 -149 -72 -136
-159 7 -42 7 -42 -28 -49 -19 -4 -47 -16 -61 -27 -24 -19 -26 -26 -26 -99 0
-84 21 -194 47 -244 21 -40 140 -164 175 -182 52 -27 101 -14 127 34 12 22 12
22 79 -30 99 -76 174 -108 247 -107 33 0 81 4 107 8 41 7 51 4 87 -20 130 -87
329 1 385 171 21 63 25 67 136 157 110 89 141 117 173 163 10 14 29 22 63 26
57 7 119 34 119 51 0 7 10 20 23 28 12 9 20 20 17 25 -2 4 4 19 15 33 69 88
79 202 29 367 -47 161 -71 198 -179 277 -71 53 -145 89 -217 108 -78 20 -120
18 -172 -8z m180 -27 c30 -11 56 -25 57 -30 2 -6 9 -10 16 -10 21 0 95 -79
102 -108 4 -15 10 -31 14 -37 6 -8 23 -72 34 -126 7 -35 20 -80 42 -146 33
-99 32 -148 -4 -181 -16 -15 -45 -59 -66 -99 -24 -46 -46 -75 -60 -79 -11 -3
-29 -16 -38 -28 -20 -24 -24 -7 -7 26 8 15 8 19 0 14 -6 -4 -11 -2 -11 3 0 6
-7 11 -16 11 -11 0 -15 6 -11 20 6 23 3 24 -22 11 -15 -9 -17 -6 -13 20 2 16
10 29 17 29 7 0 15 7 19 15 4 10 -1 15 -17 16 -12 0 -16 3 -9 6 17 7 15 23 -3
23 -8 0 -15 7 -15 15 0 8 -4 15 -10 15 -5 0 -7 7 -4 15 4 8 1 15 -5 15 -6 0
-11 5 -11 12 0 6 3 8 7 5 7 -8 33 11 33 24 0 4 -12 9 -27 11 -14 2 -28 9 -31
16 -2 7 2 10 12 6 9 -3 16 -2 16 4 0 16 78 24 100 10 10 -7 23 -9 27 -5 4 5 1
12 -7 17 -13 8 -12 10 3 10 19 0 24 16 6 22 -6 2 -2 14 10 30 14 18 18 29 11
33 -7 4 -14 -2 -17 -13 -9 -34 -51 -45 -113 -28 -30 8 -50 15 -45 15 6 1 3 6
-5 11 -13 8 -13 10 1 10 25 0 31 27 8 33 -10 3 -19 10 -19 17 0 6 5 8 10 5 6
-3 10 1 10 10 0 8 7 18 15 21 8 4 15 14 15 23 0 9 6 23 13 30 10 10 8 15 -6
25 -15 12 -16 15 -2 26 21 17 12 24 -14 11 -11 -6 -18 -17 -15 -25 3 -7 -2
-16 -11 -20 -12 -4 -19 0 -22 14 -3 11 -10 20 -17 20 -6 0 -2 7 8 15 25 19 15
30 -13 15 -25 -13 -28 2 -5 24 10 10 24 14 39 10 14 -3 33 0 45 9 29 20 14 27
-40 17 -63 -13 -70 -12 -64 5 4 11 -1 15 -17 16 -19 0 -14 5 23 23 l47 22 -42
10 c-47 10 -60 35 -26 50 35 16 63 15 120 -6z m-106 -270 c3 -5 -1 -10 -9 -10
-9 0 -16 5 -16 10 0 6 4 10 9 10 6 0 13 -4 16 -10z m-5 -130 c0 -5 -7 -7 -15
-4 -8 4 -15 8 -15 10 0 2 7 4 15 4 8 0 15 -4 15 -10z m-317 -94 c3 -7 1 -18
-5 -24 -15 -15 -38 -3 -38 19 0 22 35 26 43 5z m-131 -43 c10 -9 18 -23 18
-31 0 -10 -8 -6 -25 12 -29 31 -48 33 -75 6 -15 -15 -20 -16 -20 -5 0 33 71
47 102 18z m-272 -2 c0 -6 -4 -13 -10 -16 -5 -3 -10 1 -10 9 0 9 5 16 10 16 6
0 10 -4 10 -9z m255 -21 c3 -6 3 -19 0 -31 -10 -31 -47 -21 -52 14 -3 23 0 27
21 27 14 0 28 -5 31 -10z m-24 -60 c17 0 32 6 35 15 4 8 10 12 15 9 5 -3 5
-13 -1 -25 -20 -36 -110 -21 -110 19 0 10 3 10 16 -2 8 -9 29 -16 45 -16z
m-118 -30 c46 -78 168 -80 222 -3 13 19 17 19 87 6 68 -12 95 -20 141 -38 14
-6 17 -2 17 26 0 56 13 23 31 -83 19 -105 17 -127 -7 -107 -7 6 -11 16 -7 22
3 6 1 7 -5 3 -7 -4 -12 -2 -12 4 0 7 -8 9 -20 5 -16 -5 -19 -3 -13 12 4 10 -6
3 -21 -15 -16 -18 -42 -40 -60 -49 -17 -9 -34 -21 -38 -27 -4 -7 -42 -11 -95
-11 -82 0 -93 2 -159 37 -39 21 -74 35 -77 31 -4 -3 -22 6 -41 21 -38 28 -51
33 -41 14 4 -7 0 -5 -8 4 -8 10 -16 15 -19 12 -9 -8 -40 66 -46 108 -6 51 4
58 88 58 62 0 67 -1 83 -30z m719 -72 c-6 -6 -15 -8 -19 -4 -4 4 -1 11 7 16
19 12 27 3 12 -12z m-12 -88 c0 -5 -9 -10 -20 -10 -11 0 -20 5 -20 10 0 6 9
10 20 10 11 0 20 -4 20 -10z m217 -26 c-3 -3 -12 -4 -19 -1 -8 3 -5 6 6 6 11
1 17 -2 13 -5z m-452 -84 c-4 -6 -19 -16 -33 -23 l-27 -11 26 -3 c37 -6 42
-35 13 -74 -31 -42 -45 -51 -62 -37 -9 8 -11 24 -6 54 6 40 4 43 -20 50 -14 3
-26 9 -26 14 0 19 40 39 85 42 58 3 59 3 50 -12z"/>
<path d="M1475 1510 c3 -5 8 -10 11 -10 2 0 4 5 4 10 0 6 -5 10 -11 10 -5 0
-7 -4 -4 -10z"/>
<path d="M1583 1327 c-16 -20 -23 -47 -13 -47 6 0 10 5 10 11 0 7 7 17 17 24
10 7 12 14 6 18 -6 4 -15 1 -20 -6z"/>
<path d="M1435 1250 c-3 -5 1 -10 10 -10 9 0 13 5 10 10 -3 6 -8 10 -10 10 -2
0 -7 -4 -10 -10z"/>
<path d="M1478 1253 c6 -2 18 -2 25 0 6 3 1 5 -13 5 -14 0 -19 -2 -12 -5z"/>
<path d="M4255 1538 c-9 -22 -3 -61 11 -65 6 -2 22 5 35 16 l24 19 -26 11
c-15 5 -29 16 -32 23 -3 10 -6 9 -12 -4z"/>
<path d="M1899 1481 c11 -19 51 -36 51 -21 0 10 -40 40 -53 40 -4 0 -3 -8 2
-19z"/>
<path d="M4234 1448 c3 -14 45 -12 61 3 12 12 3 11 -29 0 -16 -7 -26 -6 -30 0
-2 5 -3 4 -2 -3z"/>
<path d="M4325 390 c-3 -5 1 -10 9 -10 9 0 16 5 16 10 0 6 -4 10 -9 10 -6 0
-13 -4 -16 -10z"/>
<path d="M4440 135 c-10 -12 -10 -15 4 -15 9 0 16 7 16 15 0 8 -2 15 -4 15 -2
0 -9 -7 -16 -15z"/>
</g>
</svg>
